<?xml version="1.0" encoding="UTF-8"?>
<svg version="1.1" xmlns="http://www.w3.org/2000/svg" width="512" height="512">
<path d="M0 0 C0.84929077 -0.00571014 1.69858154 -0.01142029 2.5736084 -0.01730347 C3.95913406 -0.01898026 3.95913406 -0.01898026 5.37265015 -0.02069092 C6.35203552 -0.02565582 7.3314209 -0.03062073 8.34048462 -0.03573608 C11.58217065 -0.05034555 14.82380769 -0.05715879 18.06552124 -0.06268311 C20.32271323 -0.06843689 22.5799052 -0.07419459 24.83709717 -0.07995605 C29.57323433 -0.09046351 34.30935453 -0.09630741 39.04550171 -0.09979248 C45.09791604 -0.10526739 51.1501043 -0.12927522 57.20244789 -0.15776443 C61.86776368 -0.17644302 66.53302568 -0.18159926 71.1983757 -0.18312836 C73.42857469 -0.18614515 75.65877296 -0.19414062 77.88893509 -0.20731354 C81.01909507 -0.22447809 84.14871146 -0.22246799 87.27890015 -0.21600342 C88.19043854 -0.2252182 89.10197693 -0.23443298 90.0411377 -0.243927 C107.32384567 -0.13281068 118.51119849 9.49135276 130.78378296 20.43243408 C133.2461466 22.61137363 135.74394053 24.74642099 138.24813843 26.87701416 C140.55151161 28.83728467 142.84296061 30.81123121 145.1343689 32.78546143 C146.61613573 34.0565288 148.10806754 35.315719 149.60067749 36.57403564 C159.64440609 45.23656389 166.09563011 55.01085696 167.13192749 68.53497314 C167.64284912 79.91769499 165.47792641 89.49198811 161.71395874 100.14044189 C160.61841505 103.28587873 159.5295171 106.4332777 158.45223999 109.58502197 C157.72275487 111.70996733 156.97846402 113.82990054 156.21786499 115.94390869 C153.63082664 122.95720833 153.63082664 122.95720833 154.71395874 130.14044189 C156.20306738 132.78085211 157.88910274 135.23860959 159.65145874 137.70294189 C166.26737771 147.08875057 167.84623781 154.71291536 166.71395874 166.14044189 C164.21217601 177.69697233 157.26346593 187.31299049 147.71395874 194.14044189 C141.57139491 197.49471455 135.55530052 200.19325241 128.4961853 200.34576416 C127.6756366 200.36570938 126.85508789 200.3856546 126.00967407 200.40620422 C124.69540436 200.43127296 124.69540436 200.43127296 123.35458374 200.45684814 C121.99801666 200.48801979 121.99801666 200.48801979 120.61404419 200.51982117 C117.73075819 200.58510129 114.84738264 200.64410141 111.96395874 200.70294189 C110.0069183 200.7461476 108.04988686 200.78976255 106.09286499 200.83380127 C101.29998754 200.94076061 96.5070202 201.04208863 91.71395874 201.14044189 C94.75921205 202.8044776 97.6585047 203.74012003 101.02645874 204.55743408 C102.08856567 204.8182074 103.15067261 205.07898071 104.2449646 205.34765625 C105.9621167 205.76328827 105.9621167 205.76328827 107.71395874 206.18731689 C110.15289907 206.79092523 112.59169663 207.39511068 115.03036499 207.99981689 C118.86205457 208.94489851 122.69461232 209.88574825 126.52987671 210.81622314 C130.24036101 211.7187604 133.94603046 212.63927181 137.65145874 213.56231689 C139.34432007 213.96580353 139.34432007 213.96580353 141.07138062 214.37744141 C156.60088144 218.28196709 168.83355154 225.26153806 177.20614624 239.18341064 C179.7811712 244.23339483 182.71395874 250.36906182 182.71395874 256.14044189 C183.58020874 256.09919189 184.44645874 256.05794189 185.33895874 256.01544189 C188.71395874 256.14044189 188.71395874 256.14044189 191.77645874 257.26544189 C194.60701059 258.45876743 194.60701059 258.45876743 196.75350952 257.21173096 C201.14747537 255.62169944 205.38097027 255.85522705 210.01864624 255.87481689 C211.01598785 255.87290344 212.01332947 255.87098999 213.04089355 255.86901855 C215.14724989 255.86765976 217.25361467 255.87133483 219.35995483 255.87969971 C222.57059739 255.89038081 225.78067754 255.87980554 228.99130249 255.86700439 C231.04208497 255.86832648 233.0928671 255.8708899 235.14364624 255.87481689 C236.09802582 255.87076843 237.0524054 255.86671997 238.03570557 255.86254883 C242.12436482 255.89105328 245.72412828 255.99245272 249.62460327 257.28204346 C252.57653564 258.44532627 252.57653564 258.44532627 254.75741577 257.28643799 C255.40307495 256.90825928 256.04873413 256.53008057 256.71395874 256.14044189 C261.32725845 255.68288008 265.95532212 255.77012707 270.58895874 255.76544189 C271.85610718 255.74094971 273.12325562 255.71645752 274.42880249 255.69122314 C286.1978042 255.65409696 286.1978042 255.65409696 290.71395874 260.14044189 C294.87810508 265.22362693 295.2929899 268.87780009 295.23153687 275.17169189 C295.23854614 276.06025879 295.24555542 276.94882568 295.2527771 277.86431885 C295.27032572 280.79001479 295.25874543 283.71473678 295.24520874 286.64044189 C295.24790455 288.68015732 295.25178772 290.71987149 295.25680542 292.75958252 C295.26269623 297.02988954 295.25415081 301.2998614 295.23544312 305.57012939 C295.212654 311.03788941 295.22577929 316.504864 295.24973297 321.97259521 C295.26420211 326.18314509 295.2595798 330.39350942 295.2492218 334.60406494 C295.24655761 336.61985365 295.24981343 338.63565933 295.25914001 340.65142822 C295.26932385 343.47113527 295.2537788 346.28957872 295.23153687 349.10919189 C295.23963379 349.93846191 295.24773071 350.76773193 295.256073 351.62213135 C295.16039481 358.18497162 293.05605624 361.82916147 288.33895874 366.48419189 C282.59857877 369.10695171 276.94519733 368.71705548 270.71395874 368.64044189 C269.45583374 368.65591064 268.19770874 368.67137939 266.90145874 368.68731689 C255.44003088 368.63875152 255.44003088 368.63875152 250.71395874 364.14044189 C248.44646148 361.13754012 246.90229425 358.70544842 245.71395874 355.14044189 C245.50641968 356.34055908 245.29888062 357.54067627 245.08505249 358.77716064 C239.16714323 391.43169356 225.75227118 421.14854119 203.71395874 446.14044189 C203.28760132 446.62706299 202.8612439 447.11368408 202.42196655 447.61505127 C183.23667684 469.41086636 158.43573566 486.89984959 130.71395874 496.14044189 C128.507739 496.24725652 126.29841458 496.29293644 124.08966064 496.30780029 C123.41305519 496.31359368 122.73644974 496.31938706 122.03934109 496.32535601 C119.76666195 496.34342696 117.49400765 496.35429097 115.22128296 496.36505127 C113.5932696 496.37622742 111.96525853 496.38774077 110.33724976 496.39956665 C104.98108119 496.43614892 99.62488909 496.46136352 94.26864624 496.48419189 C93.35566977 496.48813776 92.4426933 496.49208363 91.50205088 496.49614906 C82.87969774 496.5325954 74.25733627 496.56402182 65.63493156 496.58525848 C54.63400991 496.61275775 43.63373823 496.66336137 32.63308704 496.74573278 C24.88506105 496.8017636 17.13720993 496.83052966 9.38898861 496.83973169 C4.76986052 496.8459556 0.15149396 496.8637732 -4.46741104 496.91111755 C-8.82615017 496.95523689 -13.18372333 496.96513567 -17.54264832 496.95048904 C-19.12876693 496.950814 -20.71494076 496.96279596 -22.30085373 496.98833847 C-34.32074335 497.1714512 -43.51704742 494.41640127 -54.28604126 489.14044189 C-55.24516985 488.67389946 -56.20429844 488.20735703 -57.19249153 487.72667694 C-59.32657876 486.65356102 -61.40203911 485.5168852 -63.47354126 484.32794189 C-64.21346313 483.90907715 -64.95338501 483.4902124 -65.71572876 483.05865479 C-75.98904414 477.13403734 -85.37422998 470.31926498 -94.05557251 462.21856689 C-96.10386748 460.31017298 -98.20639723 458.50419464 -100.34854126 456.70294189 C-129.55457713 431.0600424 -145.80269609 392.63109002 -152.28604126 355.14044189 C-152.54433716 355.68966309 -152.80263306 356.23888428 -153.0687561 356.80474854 C-153.59010132 357.88550659 -153.59010132 357.88550659 -154.12197876 358.98809814 C-154.63317261 360.05942993 -154.63317261 360.05942993 -155.1546936 361.15240479 C-157.08362439 364.54197824 -159.86022577 366.42753415 -163.28604126 368.14044189 C-167.8635714 368.44028914 -172.44985748 368.41861417 -177.03604126 368.45294189 C-178.31221313 368.4819458 -179.58838501 368.51094971 -180.90322876 368.54083252 C-190.25913629 368.60431206 -190.25913629 368.60431206 -194.92666626 366.49591064 C-199.61443155 361.81590655 -201.73244356 358.18728795 -201.82815552 351.62213135 C-201.82005859 350.79286133 -201.81196167 349.96359131 -201.80361938 349.10919189 C-201.81062866 348.220625 -201.81763794 347.33205811 -201.82485962 346.41656494 C-201.84240824 343.490869 -201.83082795 340.56614701 -201.81729126 337.64044189 C-201.81998707 335.60072647 -201.82387024 333.5610123 -201.82888794 331.52130127 C-201.83477875 327.25099425 -201.82623333 322.98102239 -201.80752563 318.71075439 C-201.78473652 313.24299438 -201.79786181 307.77601979 -201.82181549 302.30828857 C-201.83628463 298.0977387 -201.83166231 293.88737437 -201.82130432 289.67681885 C-201.81864013 287.66103014 -201.82189595 285.64522446 -201.83122253 283.62945557 C-201.84140637 280.80974852 -201.82586132 277.99130507 -201.80361938 275.17169189 C-201.81171631 274.34242188 -201.81981323 273.51315186 -201.82815552 272.65875244 C-201.73242468 266.09230074 -199.62156439 262.45291709 -194.91104126 257.78887939 C-189.16980709 255.17810265 -183.51040285 255.64427092 -177.28604126 255.76544189 C-175.39885376 255.76737549 -175.39885376 255.76737549 -173.47354126 255.76934814 C-164.04518631 255.85923712 -164.04518631 255.85923712 -160.19229126 257.28643799 C-156.56285988 258.35294933 -155.7184973 257.55555073 -152.28604126 256.14044189 C-148.85391906 255.82230635 -145.42616461 255.86026579 -141.98135376 255.87481689 C-140.98401215 255.87290344 -139.98667053 255.87098999 -138.95910645 255.86901855 C-136.85275011 255.86765976 -134.74638533 255.87133483 -132.64004517 255.87969971 C-129.42940261 255.89038081 -126.21932246 255.87980554 -123.00869751 255.86700439 C-120.95791503 255.86832648 -118.9071329 255.8708899 -116.85635376 255.87481689 C-115.42478439 255.8687442 -115.42478439 255.8687442 -113.96429443 255.86254883 C-108.6460388 255.89962553 -104.34850697 256.55649556 -99.28604126 258.14044189 C-97.20270793 257.30710856 -97.20270793 257.30710856 -95.28604126 256.14044189 C-93.28654858 256.095397 -91.28544503 256.09160978 -89.28604126 256.14044189 C-89.13908813 255.39020752 -88.99213501 254.63997314 -88.84072876 253.86700439 C-85.99060198 240.86125347 -79.37412146 230.11142874 -68.34854126 222.45294189 C-54.41358975 214.27311676 -36.82033744 211.65033002 -21.28604126 207.82794189 C-19.046348 207.27304686 -16.80676382 206.71771136 -14.56729126 206.16192627 C-9.14145285 204.81635956 -3.71430146 203.47620317 1.71395874 202.14044189 C1.71395874 201.81044189 1.71395874 201.48044189 1.71395874 201.14044189 C0.529552 201.13109619 -0.65485474 201.12175049 -1.87515259 201.11212158 C-6.31676298 201.07191029 -10.75770315 201.00606855 -15.19888306 200.93292236 C-17.11220619 200.90489187 -19.02564126 200.88358924 -20.93911743 200.8694458 C-36.66914089 200.74626629 -49.42250135 199.27268861 -61.44619751 188.14044189 C-70.83628559 178.31156465 -73.90912324 167.44198991 -73.62197876 154.17950439 C-73.23740872 147.3049176 -70.03687989 142.6075327 -66.13760376 137.11309814 C-65.40283813 136.07024658 -64.66807251 135.02739502 -63.91104126 133.95294189 C-63.20205688 133.01063721 -62.49307251 132.06833252 -61.76260376 131.09747314 C-59.40929212 126.38462416 -60.89426451 122.08317075 -62.50112915 117.2666626 C-62.99876575 115.86477204 -63.50153559 114.46469592 -64.00869751 113.06622314 C-64.55577425 111.50569761 -65.10061682 109.94438742 -65.64346313 108.38238525 C-65.92375366 107.57638885 -66.20404419 106.77039246 -66.49282837 105.93997192 C-72.34109775 88.94265689 -77.79351965 72.42976346 -70.66104126 54.79669189 C-63.7930779 41.5290354 -52.36882199 32.51165023 -40.93838501 23.32794189 C-38.28225961 21.13732301 -35.75248409 18.8510646 -33.22354126 16.51544189 C-23.9588658 8.12893472 -13.03558714 0.05272069 0 0 Z " fill="#010000" transform="translate(209.28604125976563,7.85955810546875)"/>
<path d="M0 0 C4.62 0 9.24 0 14 0 C14.928125 2.0625 15.85625 4.125 16.8125 6.25 C20.9661826 14.93097145 27.61706902 24.00553797 36 29 C39.66161578 27.77946141 40.16270474 26.63217696 42.1875 23.4375 C42.71730469 22.61121094 43.24710937 21.78492187 43.79296875 20.93359375 C44.19128906 20.29550781 44.58960938 19.65742187 45 19 C43.44497452 15.49935022 41.59948174 13.80806536 38.59765625 11.42578125 C35.81696918 8.944239 33.98427877 6.15150158 32 3 C32 2.01 32 1.02 32 0 C36.99317617 -0.82890672 42.11339312 -1.64679676 47 0 C50.54604568 3.69889248 52.6662797 7.76651968 55.0234375 12.27783203 C57.66261524 16.93202197 61.81367212 20.86817885 66.54495239 23.31747437 C69.58845841 24.93965227 71.6950996 26.41893641 74 29 C75.45035399 34.31385848 75.26509423 39.52333526 75.1171875 44.9765625 C75.10867047 46.54965644 75.10402826 48.12277564 75.10305786 49.69589233 C75.09075026 52.99032006 75.0455198 56.28201514 74.97412109 59.57568359 C74.88401907 63.76168175 74.85409114 67.94519594 74.84664726 72.13207436 C74.83770691 75.38231129 74.80694969 78.63204529 74.7688942 81.882061 C74.75133969 83.42311918 74.73778032 84.964229 74.72857285 86.50535965 C74.60643878 100.88602343 72.41807953 114.21515767 62.1171875 124.96484375 C52.34449747 134.0285347 41.72643684 136.29348963 28.69921875 136.37109375 C27.74159134 136.38012222 26.78396393 136.3891507 25.7973175 136.39845276 C23.78295987 136.41287551 21.76855623 136.42182198 19.75415039 136.42553711 C16.70572425 136.43742891 13.65932829 136.48669059 10.61132812 136.53710938 C-4.97182424 136.66658099 -15.88582081 134.32138129 -27.64453125 123.484375 C-35.36431892 115.4323433 -38.09470347 104.51872231 -38.17700195 93.67456055 C-38.18357315 92.95516296 -38.19014435 92.23576538 -38.19691467 91.49456787 C-38.21654705 89.12528359 -38.22828686 86.75606235 -38.23828125 84.38671875 C-38.24235678 83.57384714 -38.2464323 82.76097553 -38.25063133 81.92347145 C-38.27144787 77.62191654 -38.28576936 73.32039312 -38.29516602 69.01879883 C-38.30622935 64.59042162 -38.34064077 60.16254699 -38.38033772 55.73434734 C-38.40655242 52.31554771 -38.41486206 48.89686713 -38.41844749 45.47797585 C-38.42329985 43.84618543 -38.43487512 42.21439986 -38.45348549 40.58270836 C-38.63914259 23.2283718 -38.63914259 23.2283718 -31.81640625 15.5390625 C-30.70072266 14.59160156 -30.70072266 14.59160156 -29.5625 13.625 C-28.82128906 12.97789063 -28.08007812 12.33078125 -27.31640625 11.6640625 C-24.12747622 9.3731954 -21.31010029 8.24388021 -17.4609375 7.52734375 C-13.68890507 8.25181347 -12.7390561 10.45247163 -10.625 13.5625 C-5.79364571 20.41398196 -1.90655523 25.83737791 6 29 C8.31 25.7 10.62 22.4 13 19 C11.11346716 15.22693432 9.77981253 13.951178 6.59765625 11.42578125 C3.81696918 8.944239 1.98427877 6.15150158 0 3 C0 2.01 0 1.02 0 0 Z " fill="#EECEB2" transform="translate(238,64)"/>
<path d="M0 0 C5.28 0 10.56 0 16 0 C16 10.56 16 21.12 16 32 C21.28 32 26.56 32 32 32 C32 21.44 32 10.88 32 0 C37.28 0 42.56 0 48 0 C48.20625 2.3925 48.4125 4.785 48.625 7.25 C49.80752442 17.75133098 53.57825853 26.79207643 61.43359375 34.109375 C66.86727754 38.11227143 72.953893 41.03992678 79 44 C79.36567006 55.63904597 78.41568832 67.19844812 77.51074219 78.79370117 C77.2498842 82.18900722 77.0115803 85.58545696 76.7734375 88.98242188 C76.60555583 91.16937792 76.43633088 93.35623134 76.265625 95.54296875 C76.16535004 97.04491035 76.16535004 97.04491035 76.06304932 98.57719421 C75.29842049 107.76186122 72.91538561 116.5356178 66 123 C59.03328096 127.47037279 53.05718372 128.74970546 44.875 128.6640625 C43.84745605 128.66884613 42.81991211 128.67362976 41.76123047 128.67855835 C39.6031744 128.68193902 37.44506581 128.67286613 35.28710938 128.65185547 C32.00793882 128.62506486 28.73219071 128.65166756 25.453125 128.68359375 C23.34374254 128.68028933 21.23436219 128.67388243 19.125 128.6640625 C18.15804199 128.67418365 17.19108398 128.68430481 16.19482422 128.69473267 C8.51014231 128.56421383 2.09593393 126.46390488 -3.84106445 121.44302368 C-10.5838107 114.2923253 -11.48986077 105.129341 -12.16796875 95.7109375 C-12.29477776 94.11869858 -12.29477776 94.11869858 -12.42414856 92.49429321 C-12.59992497 90.25751759 -12.77021873 88.02030502 -12.93530273 85.78271484 C-13.18529685 82.40476922 -13.45347048 79.02865092 -13.72460938 75.65234375 C-14.44101753 66.52367687 -15.14937309 57.38078129 -15.31640625 48.22265625 C-15.33775635 47.11672119 -15.35910645 46.01078613 -15.38110352 44.87133789 C-14.8090154 40.56106994 -12.70212705 38.09141149 -9.8125 34.96875 C-1.17231042 25.58371649 -0.54691082 12.03203808 0 0 Z " fill="#EECEB3" transform="translate(224,280)"/>
<path d="M0 0 C0.79880585 -0.0071553 1.59761169 -0.01431061 2.42062378 -0.02168274 C3.28820312 -0.02437164 4.15578247 -0.02706055 5.0496521 -0.02983093 C5.97051605 -0.03640213 6.89138 -0.04297333 7.84014893 -0.04974365 C10.88703497 -0.06944922 13.93387174 -0.08113456 16.98080444 -0.09111023 C18.54526873 -0.09722352 18.54526873 -0.09722352 20.14133835 -0.10346031 C25.66415966 -0.12431159 31.18695621 -0.13861615 36.70980835 -0.147995 C42.3990959 -0.15904393 48.08799067 -0.19342931 53.77713966 -0.23316669 C58.16451721 -0.25938227 62.55180197 -0.26769134 66.93925095 -0.27127647 C69.03549215 -0.27613138 71.13172952 -0.2877139 73.22789383 -0.30631447 C76.17139535 -0.33080584 79.11389122 -0.32972233 82.0574646 -0.32279968 C82.91289856 -0.33560974 83.76833252 -0.3484198 84.64968872 -0.36161804 C93.92167779 -0.28269069 101.35834171 3.00807349 108.19174194 9.14717102 C109.29965081 10.12652331 110.40772981 11.10568315 111.51596069 12.08467102 C112.35779907 12.84070618 112.35779907 12.84070618 113.21664429 13.61201477 C115.52221925 15.66373503 117.87759453 17.65352405 120.23397827 19.6464386 C147.08368027 42.40814294 147.08368027 42.40814294 148.19564819 53.73310852 C148.52633116 61.86150914 146.61701194 68.5399407 143.94174194 76.14717102 C143.58338257 77.28670227 143.22502319 78.42623352 142.85580444 79.60029602 C140.89186214 85.83175206 140.89186214 85.83175206 139.94174194 88.14717102 C138.95174194 88.64217102 138.95174194 88.64217102 137.94174194 89.14717102 C135.60610954 87.82581723 133.43995796 86.30982152 131.23080444 84.78779602 C126.69125684 82.37554459 126.69125684 82.37554459 115.94174194 80.14717102 C115.94174194 66.94717102 115.94174194 53.74717102 115.94174194 40.14717102 C110.66174194 40.14717102 105.38174194 40.14717102 99.94174194 40.14717102 C99.94174194 43.11717102 99.94174194 46.08717102 99.94174194 49.14717102 C91.51627217 44.93443613 88.08782265 35.84166646 84.78939819 27.42060852 C83.94174194 24.14717102 83.94174194 24.14717102 83.94174194 16.14717102 C78.66174194 16.14717102 73.38174194 16.14717102 67.94174194 16.14717102 C69.00430698 24.48421979 70.2852293 32.17763309 72.94174194 40.14717102 C67.99174194 40.14717102 63.04174194 40.14717102 57.94174194 40.14717102 C61.66119071 47.03503911 65.55981349 52.40630988 71.94174194 57.14717102 C70.35130816 62.23655914 67.19704685 66.02173745 63.94174194 70.14717102 C53.08204438 66.54013115 45.86908746 54.96326666 40.94174194 45.14717102 C40.61174194 43.49717102 40.28174194 41.84717102 39.94174194 40.14717102 C34.99174194 40.47717102 30.04174194 40.80717102 24.94174194 41.14717102 C21.63863535 32.30336949 19.80119519 25.56380327 19.94174194 16.14717102 C14.66174194 16.14717102 9.38174194 16.14717102 3.94174194 16.14717102 C4.43674194 24.56217102 4.43674194 24.56217102 4.94174194 33.14717102 C3.31236694 33.68342102 1.68299194 34.21967102 0.00424194 34.77217102 C-9.69231208 38.32425058 -17.67505415 43.60997756 -22.49966431 52.93232727 C-25.55707735 59.54365632 -27.2324394 65.0457388 -27.62075806 72.33467102 C-27.68553345 73.45905579 -27.68553345 73.45905579 -27.75161743 74.6061554 C-27.85748491 76.45295477 -27.95835565 78.30003936 -28.05825806 80.14717102 C-28.67571899 80.23353821 -29.29317993 80.3199054 -29.92935181 80.40888977 C-36.53015205 81.5039997 -41.37993633 83.70040764 -47.05825806 87.14717102 C-48.3851018 87.82666193 -49.71660823 88.49740339 -51.05825806 89.14717102 C-63.7180835 59.72545379 -63.7180835 59.72545379 -58.49575806 46.39717102 C-52.2756425 34.36729474 -40.07983441 25.67998132 -29.74966431 17.37763977 C-27.0489984 15.1394972 -24.49478165 12.79241333 -21.93325806 10.39717102 C-15.55816911 4.59056135 -8.83616138 0.05462645 0 0 Z " fill="#B07845" transform="translate(212.05825805664063,23.852828979492188)"/>
<path d="M0 0 C0.17638838 3.16594536 0.28152076 6.33060873 0.375 9.5 C0.42527344 10.386875 0.47554687 11.27375 0.52734375 12.1875 C0.68589834 19.37530804 -1.4050037 22.67598987 -6 28 C-14.94153604 42.70775535 -17.04966488 58.68833852 -13.6484375 75.47265625 C-13.00796659 77.96894948 -12.20128405 80.33234431 -11.3125 82.75 C-9.87169206 86.89599836 -9.84235932 89.67814147 -11 94 C-11.67656599 95.38041288 -12.36505454 96.75501785 -13.0625 98.125 C-16.23338284 104.99136028 -16.14917684 112.13458699 -14.01171875 119.32421875 C-10.12251414 129.11345513 -5.35232635 134.26257704 4 139 C6.96079367 140.16861959 9.93186442 141.15515107 13 142 C13.02578125 142.79921875 13.0515625 143.5984375 13.078125 144.421875 C13.82385463 158.86191235 17.82738824 170.50484676 28.5625 180.4375 C31.56283209 183.08485185 34.21865816 184.6775272 38 186 C37.3422476 190.34116587 35.75965131 193.9947883 34 198 C7.36822584 198.61536834 -15.47956515 191.60986063 -35 173 C-43.14698225 164.39883059 -50.09914125 153.53018099 -53 142 C-52.20335937 141.91363281 -51.40671875 141.82726562 -50.5859375 141.73828125 C-43.86951329 140.84766052 -39.55844853 140.15824439 -35 135 C-32.66964724 130.60499097 -32.71020759 126.30883484 -32.7253418 121.44946289 C-32.72023087 120.6000563 -32.71511993 119.75064972 -32.70985413 118.87550354 C-32.69598174 116.07448229 -32.69691307 113.27370772 -32.69921875 110.47265625 C-32.69533064 108.52119353 -32.69099573 106.56973166 -32.68623352 104.61827087 C-32.67877645 100.5303981 -32.67905896 96.44261171 -32.68432617 92.35473633 C-32.69012125 87.12137114 -32.67318632 81.88835982 -32.6499815 76.65505314 C-32.63523607 72.62554362 -32.63437355 68.59611917 -32.63749123 64.56658745 C-32.63697846 62.63731625 -32.63174912 60.70804023 -32.62167931 58.77879524 C-32.60931606 56.07894134 -32.61610578 53.37977488 -32.62768555 50.67993164 C-32.62004181 49.88649353 -32.61239807 49.09305542 -32.60452271 48.27557373 C-32.65010789 43.45686322 -33.37851361 40.19479323 -36 36 C-37.90549051 34.30879011 -37.90549051 34.30879011 -40.0625 33.1875 C-40.75472656 32.78917969 -41.44695312 32.39085937 -42.16015625 31.98046875 C-43.4311134 31.30316462 -44.71187797 30.64406101 -46 30 C-45.6929675 22.63122009 -42.36725474 18.42119246 -37.29296875 13.265625 C-30.34976901 6.93367761 -22.10643008 5.07434514 -13.1875 2.8125 C-12.13884766 2.53986328 -11.09019531 2.26722656 -10.00976562 1.98632812 C-2.28847509 0 -2.28847509 0 0 0 Z " fill="#FC806D" transform="translate(184,234)"/>
<path d="M0 0 C32.51736688 6.59932956 32.51736688 6.59932956 42 18 C47 25.93650794 47 25.93650794 47 30 C46.39671875 30.23074219 45.7934375 30.46148437 45.171875 30.69921875 C40.23382078 32.71426346 36.89247454 34.29972887 34 39 C32.73391831 42.79824507 32.84437932 46.36562772 32.83886719 50.32348633 C32.83390228 51.17260086 32.82893738 52.02171539 32.82382202 52.89656067 C32.80920547 55.70839242 32.80239906 58.52016774 32.796875 61.33203125 C32.79112291 63.28635154 32.78536519 65.24067181 32.77960205 67.19499207 C32.76909336 71.29479231 32.7632499 75.39457295 32.75976562 79.49438477 C32.7542827 84.74347769 32.73025836 89.99231098 32.70179367 95.24132252 C32.68315401 99.27940117 32.67796097 103.31741747 32.67642975 107.35553551 C32.67340545 109.29039618 32.66538442 111.22525581 32.65224457 113.16007423 C32.6351572 115.86969272 32.63707093 118.57867931 32.64355469 121.28833008 C32.6343399 122.08491028 32.62512512 122.88149048 32.6156311 123.70220947 C32.65177667 128.53332927 33.35618067 131.80306613 36 136 C40.08277828 139.68445845 42.71300652 141.07680828 48.125 141.5625 C49.03507812 141.64628906 49.94515625 141.73007812 50.8828125 141.81640625 C51.58148438 141.87699219 52.28015625 141.93757812 53 142 C47.44744397 161.59725658 33.64939559 177.35768494 16.10546875 187.2578125 C-0.14489595 195.97477798 -15.82544546 198.19850848 -34 198 C-34.67354499 196.56570999 -35.33859701 195.12742943 -36 193.6875 C-36.556875 192.48673828 -36.556875 192.48673828 -37.125 191.26171875 C-38 189 -38 189 -38 186 C-37.43152344 185.72027344 -36.86304688 185.44054687 -36.27734375 185.15234375 C-24.48737897 179.03100978 -19.38154601 170.85643002 -14.6875 158.5625 C-13.63019886 153.08375771 -13.31799103 147.5648431 -13 142 C-12.46632813 141.85304688 -11.93265625 141.70609375 -11.3828125 141.5546875 C-2.01656685 138.73509106 5.74494735 134.92221443 10.81640625 126.2734375 C11.20699219 125.52320313 11.59757812 124.77296875 12 124 C12.50853516 123.06027344 12.50853516 123.06027344 13.02734375 122.1015625 C15.78522513 116.07743451 15.86367907 109.48141459 15 103 C13.8575011 100.04565941 12.49855568 97.30701693 11.05859375 94.48828125 C8.52323012 88.52877339 11.29082608 82.97416312 13.30078125 77.19921875 C18.46060071 60.9702894 14.35586672 43.85413922 6.9140625 29.19140625 C5.10265331 25.89019291 5.10265331 25.89019291 2.29296875 23.23828125 C-0.932785 18.68265968 -0.56421787 15.05436077 -0.3125 9.625 C-0.28994141 8.69816406 -0.26738281 7.77132812 -0.24414062 6.81640625 C-0.18553677 4.54257665 -0.1035693 2.27215114 0 0 Z " fill="#FC806D" transform="translate(328,234)"/>
<path d="M0 0 C1.39232005 -0.00644314 2.78463881 -0.01317257 4.17695618 -0.02017212 C7.08764782 -0.03209789 9.99822123 -0.035858 12.90893555 -0.03466797 C16.60256948 -0.03446545 20.29542822 -0.06171813 23.9888792 -0.09621239 C26.8640324 -0.11867314 29.73900497 -0.12249967 32.61423683 -0.12144852 C34.62632097 -0.1248952 36.63834873 -0.14643848 38.65031433 -0.16854858 C52.90701643 -0.09862155 65.22370916 3.70559464 75.92578125 13.3671875 C86.44507858 24.36463471 90.15216266 36.78550997 89.9296875 51.6171875 C89.60858717 56.32007226 89.12900536 61.21671791 86.67578125 65.3359375 C82.74468558 67.09612959 79.51331518 65.74644546 75.60546875 64.48828125 C66.78384586 61.01844291 56.37026299 56.49597492 51.86328125 47.7109375 C51.44433594 46.93492187 51.02539062 46.15890625 50.59375 45.359375 C49.67578125 42.3359375 49.67578125 42.3359375 49.67578125 32.3359375 C39.11578125 32.3359375 28.55578125 32.3359375 17.67578125 32.3359375 C17.67578125 42.8959375 17.67578125 53.4559375 17.67578125 64.3359375 C12.39578125 64.3359375 7.11578125 64.3359375 1.67578125 64.3359375 C1.67578125 53.7759375 1.67578125 43.2159375 1.67578125 32.3359375 C-8.88421875 32.3359375 -19.44421875 32.3359375 -30.32421875 32.3359375 C-30.32421875 36.9559375 -30.32421875 41.5759375 -30.32421875 46.3359375 C-32.49155722 54.01192791 -35.97058017 60.30787819 -42.32421875 65.3359375 C-45.23479468 66.32592931 -47.202022 66.39169101 -50.32421875 66.3359375 C-50.80407842 65.06536568 -51.28307805 63.79446902 -51.76171875 62.5234375 C-52.16197266 61.46189453 -52.16197266 61.46189453 -52.5703125 60.37890625 C-56.54458012 49.60925876 -54.78121826 37.68725293 -50.32421875 27.3359375 C-44.11308281 15.0906669 -35.0416594 7.38432734 -22.32421875 2.3359375 C-14.9113511 -0.03697039 -7.73963271 0.01307106 0 0 Z " fill="#646C77" transform="translate(238.32421875,247.6640625)"/>
<path d="M0 0 C10.56 0 21.12 0 32 0 C32.3125 9.0625 32.3125 9.0625 32.38793945 11.87524414 C32.62021568 17.16447342 33.31087116 21.3155261 36 26 C37.5010813 27.19490048 39.00345381 28.38874646 40.53271484 29.54736328 C43.49532343 32.48039508 44.47595093 36.57490588 45.8125 40.4375 C50.85218347 53.91660489 57.76434362 64.76434362 68 75 C68.76957031 75.76957031 69.53914063 76.53914063 70.33203125 77.33203125 C76.95608478 83.61364582 85.00525021 89.80060246 93.65576172 92.97436523 C96 95 96 95 96.43528748 97.00823975 C96.5815744 99.73103524 96.56088822 102.41087616 96.48828125 105.13671875 C96.48120651 106.13129593 96.47413177 107.12587311 96.46684265 108.15058899 C96.43883158 111.33032133 96.37607922 114.50829906 96.3125 117.6875 C96.28742588 119.84177146 96.26461117 121.9960705 96.24414062 124.15039062 C96.1889834 129.43419341 96.10529098 134.71697138 96 140 C94.41215146 139.37869208 92.82566331 138.75390683 91.23974609 138.12768555 C89.9143129 137.60636299 89.9143129 137.60636299 88.56210327 137.07450867 C85.05732081 135.60465413 81.8537701 133.80552405 78.625 131.8125 C77.66920044 131.22831299 77.66920044 131.22831299 76.6940918 130.63232422 C65.79275099 123.8637224 56.25725595 115.8220858 47 107 C46.28070313 106.33355469 45.56140625 105.66710937 44.8203125 104.98046875 C23.89203982 85.01876288 9.30125008 55.89543441 3.3125 27.8125 C3.09827393 26.82306396 2.88404785 25.83362793 2.66333008 24.81420898 C0.94021185 16.4856919 0.24273479 8.49571761 0 0 Z " fill="#EECEB2" transform="translate(72,344)"/>
<path d="M0 0 C10.56 0 21.12 0 32 0 C30.85980828 39.90671024 13.95520135 77.11799524 -13.67480469 105.62353516 C-14.79468456 106.78674126 -15.88870269 107.97476283 -16.9765625 109.16796875 C-26.12343617 118.93940868 -37.62325792 126.43788872 -49.125 133.125 C-49.91817627 133.58624268 -50.71135254 134.04748535 -51.52856445 134.52270508 C-55.62180299 136.84033188 -59.49482622 138.57913132 -64 140 C-64.37264482 133.75676601 -64.64370492 127.52006322 -64.82397461 121.26831055 C-64.8991282 119.14607001 -65.00130044 117.02459933 -65.1315918 114.9050293 C-66.16020565 97.73322862 -66.16020565 97.73322862 -62.56491089 93.18423462 C-59.02362657 90.2154443 -55.10046344 88.44525107 -50.82029724 86.78927612 C-46.30010974 84.82933465 -42.64292688 81.24496008 -39 78 C-37.77216797 76.91332031 -37.77216797 76.91332031 -36.51953125 75.8046875 C-24.30565163 64.32932153 -17.28360958 50.43575227 -11.23193359 35.046875 C-9.45525205 30.66793742 -7.65056728 28.92045382 -4 26 C-0.96699038 20.35258015 -0.48248051 15.40018772 -0.3125 9.0625 C-0.209375 6.071875 -0.10625 3.08125 0 0 Z " fill="#EECEB2" transform="translate(408,344)"/>
<path d="M0 0 C7 1 7 1 10.34765625 1.52734375 C14.70918177 2.09177646 19.04714608 2.34669695 23.4375 2.5625 C24.67790039 2.62727539 24.67790039 2.62727539 25.94335938 2.69335938 C27.96209549 2.79838033 29.98102951 2.89958559 32 3 C32.20302734 4.051875 32.20302734 4.051875 32.41015625 5.125 C34.14825795 12.78513684 36.79312345 18.71223008 43.62742615 23.02760315 C49.04809147 26.00505531 53.49208548 26.5898697 59.6171875 26.53125 C60.51438507 26.5350769 61.41158264 26.53890381 62.33596802 26.54284668 C64.22350189 26.54555397 66.11107404 26.53827616 67.99853516 26.52148438 C70.86056807 26.50010779 73.72007667 26.52129988 76.58203125 26.546875 C91.22765639 26.8535525 91.22765639 26.8535525 103.87573242 20.32177734 C108.6181645 15.35916357 110.75679103 9.68367393 112 3 C112.64960693 2.94465088 113.29921387 2.88930176 113.96850586 2.83227539 C116.95827241 2.57686018 119.94788568 2.31969074 122.9375 2.0625 C124.46987305 1.93198242 124.46987305 1.93198242 126.03320312 1.79882812 C127.04189453 1.71181641 128.05058594 1.62480469 129.08984375 1.53515625 C130.00628662 1.456604 130.92272949 1.37805176 131.86694336 1.29711914 C135.91617449 0.91311585 139.9574787 0.44916903 144 0 C144 14.19 144 28.38 144 43 C96.48 43 48.96 43 0 43 C0 28.81 0 14.62 0 0 Z " fill="#B3DC7E" transform="translate(184,445)"/>
<path d="M0 0 C26.4 0 52.8 0 80 0 C80 14.73602307 78.50713941 26.12221759 68.1171875 36.96484375 C59.75064827 44.72439876 49.90523114 48.58549901 38.4453125 48.24609375 C25.99103123 46.99270762 15.83433868 42.21636604 7.7578125 32.5703125 C0.65819868 22.1890994 0 12.5267768 0 0 Z " fill="#010101" transform="translate(216,136)"/>
<path d="M0 0 C12.54 0 25.08 0 38 0 C45.04424779 21.13274336 45.04424779 21.13274336 41.6875 29.125 C40 31 40 31 37 32 C34.24289043 32.12093389 31.51182638 32.18812326 28.75390625 32.203125 C27.54262306 32.21167511 27.54262306 32.21167511 26.30686951 32.22039795 C24.59969388 32.22983834 22.89250011 32.23637812 21.18530273 32.24023438 C18.57568625 32.2499509 15.96685393 32.2809869 13.35742188 32.3125 C11.69792134 32.31902933 10.03841518 32.32428007 8.37890625 32.328125 C7.59963272 32.3404718 6.82035919 32.3528186 6.01747131 32.36553955 C2.77722836 32.35223287 0.41616205 32.22539875 -2.46118164 30.66699219 C-5.0515122 27.86090349 -5.23052001 24.9175691 -5.375 21.25 C-5 15 -5 15 0 0 Z " fill="#EDCDB2" transform="translate(237,424)"/>
<path d="M0 0 C5.28 0 10.56 0 16 0 C16 26.4 16 52.8 16 80 C10.72 80 5.44 80 0 80 C0 53.6 0 27.2 0 0 Z " fill="#AAB2BD" transform="translate(472,280)"/>
<path d="M0 0 C5.28 0 10.56 0 16 0 C16 26.4 16 52.8 16 80 C10.72 80 5.44 80 0 80 C0 53.6 0 27.2 0 0 Z " fill="#AAB2BD" transform="translate(376,280)"/>
<path d="M0 0 C5.28 0 10.56 0 16 0 C16 26.4 16 52.8 16 80 C10.72 80 5.44 80 0 80 C0 53.6 0 27.2 0 0 Z " fill="#AAB2BD" transform="translate(120,280)"/>
<path d="M0 0 C5.28 0 10.56 0 16 0 C16 26.4 16 52.8 16 80 C10.72 80 5.44 80 0 80 C0 53.6 0 27.2 0 0 Z " fill="#AAB2BD" transform="translate(24,280)"/>
<path d="M0 0 C5.28 0 10.56 0 16 0 C16.2475 2.083125 16.495 4.16625 16.75 6.3125 C18.65309912 19.2692159 23.21785336 30.53782688 33.5 39.1875 C34.325 39.785625 35.15 40.38375 36 41 C34.40956621 46.08938811 31.2553049 49.87456643 28 54 C17.03443059 50.35779489 10.00474106 38.80143284 5 29 C0.97701669 19.29819677 -0.14277674 10.42270172 0 0 Z " fill="#030201" transform="translate(248,40)"/>
<path d="M0 0 C6.52908161 8.05253398 6.52908161 8.05253398 6.3828125 14.45703125 C5.3324503 21.43443729 1.36984377 27.54695883 -4 32 C-9.20424313 35.79476061 -13.5615848 38.27531798 -20.08203125 38.1953125 C-21.01337891 38.18886719 -21.94472656 38.18242187 -22.90429688 38.17578125 C-23.86400391 38.15902344 -24.82371094 38.14226562 -25.8125 38.125 C-26.79154297 38.11597656 -27.77058594 38.10695312 -28.77929688 38.09765625 C-31.18645061 38.07417182 -33.59309743 38.0413284 -36 38 C-35.60167969 37.18917969 -35.20335937 36.37835938 -34.79296875 35.54296875 C-31.40989769 28.47226792 -28.74647646 21.6446645 -27 14 C-26.17757813 13.85304687 -25.35515625 13.70609375 -24.5078125 13.5546875 C-15.38057689 11.72080875 -7.77089014 9.13002254 -1.375 2.125 C-0.92125 1.42375 -0.4675 0.7225 0 0 Z " fill="#AE7644" transform="translate(354,154)"/>
<path d="M0 0 C0.67095703 0.58007812 0.67095703 0.58007812 1.35546875 1.171875 C2.61352237 2.25557151 3.87546221 3.33476788 5.140625 4.41015625 C6.59006671 5.64948981 8.01819485 6.91376461 9.4375 8.1875 C15.13746501 12.21918257 21.14799675 13.388214 28 14 C28.34611328 15.34191406 28.34611328 15.34191406 28.69921875 16.7109375 C30.75149572 24.31977463 33.21017184 31.09872025 37 38 C13.15870594 39.06933764 13.15870594 39.06933764 3.125 30.5625 C-2.14371079 24.20905464 -5.52845288 18.71060173 -5.40234375 10.359375 C-4.70782392 6.28665677 -2.4686065 3.23563781 0 0 Z " fill="#AF7744" transform="translate(157,154)"/>
<path d="M0 0 C5.28 0 10.56 0 16 0 C15.69711773 9.08646817 12.61338644 18.02942662 5.875 24.4375 C4.05859375 25.75390625 4.05859375 25.75390625 2 27 C1.22785156 27.48339844 0.45570313 27.96679688 -0.33984375 28.46484375 C-10.26254605 33.60414867 -21.15138923 32.4343305 -32 32 C-32 26.72 -32 21.44 -32 16 C-30.62585938 15.96261719 -29.25171875 15.92523438 -27.8359375 15.88671875 C-26.01559873 15.82103642 -24.19528743 15.75458987 -22.375 15.6875 C-21.47136719 15.66494141 -20.56773437 15.64238281 -19.63671875 15.61914062 C-13.17388404 15.35968376 -8.49805258 14.49805258 -3.75 9.75 C-1.49782812 6.49870605 -1.49782812 6.49870605 0 0 Z " fill="#020101" transform="translate(272,360)"/>
<path d="M0 0 C15.84 0 31.68 0 48 0 C48 5.61 48 11.22 48 17 C32.16 17 16.32 17 0 17 C0 11.39 0 5.78 0 0 Z " fill="#CBD0D8" transform="translate(408,311)"/>
<path d="M0 0 C15.84 0 31.68 0 48 0 C48 5.61 48 11.22 48 17 C32.16 17 16.32 17 0 17 C0 11.39 0 5.78 0 0 Z " fill="#CBD0D8" transform="translate(56,311)"/>
<path d="M0 0 C15.84 0 31.68 0 48 0 C48 5.28 48 10.56 48 16 C32.16 16 16.32 16 0 16 C0 10.72 0 5.44 0 0 Z " fill="#F0D0B4" transform="translate(232,216)"/>
<path d="M0 0 C0.80232056 -0.00004028 1.60464111 -0.00008057 2.43127441 -0.00012207 C4.12239443 0.00522359 5.8135146 0.02276578 7.50439453 0.05175781 C10.08573724 0.09362006 12.66446867 0.09282315 15.24609375 0.0859375 C16.89324721 0.09643096 18.54038728 0.10936992 20.1875 0.125 C21.3392572 0.12530212 21.3392572 0.12530212 22.51428223 0.12561035 C27.02599744 0.22473308 30.01087988 0.78722566 33.59375 3.59375 C34.99832737 6.40290474 34.84270157 8.48185534 34.59375 11.59375 C32.81390595 14.7296657 32.07066793 15.43477736 28.59375 16.59375 C23.34255951 16.87064497 18.09179115 16.90714221 12.83398438 16.94384766 C11.09393955 16.96041642 9.35396305 16.98771889 7.61425781 17.02587891 C5.09925214 17.08071881 2.58583593 17.1025286 0.0703125 17.1171875 C-0.70379974 17.13985687 -1.47791199 17.16252625 -2.27548218 17.18588257 C-6.32165937 17.17010093 -8.17461313 16.77539113 -11.39697266 14.24853516 C-13.40625 11.59375 -13.40625 11.59375 -14.03125 8.59375 C-12.4447375 0.97849 -6.89259428 -0.14717412 0 0 Z " fill="#EDCDB1" transform="translate(421.40625,279.40625)"/>
<path d="M0 0 C0.80232056 -0.00004028 1.60464111 -0.00008057 2.43127441 -0.00012207 C4.12239443 0.00522359 5.8135146 0.02276578 7.50439453 0.05175781 C10.08573724 0.09362006 12.66446867 0.09282315 15.24609375 0.0859375 C16.89324721 0.09643096 18.54038728 0.10936992 20.1875 0.125 C21.3392572 0.12530212 21.3392572 0.12530212 22.51428223 0.12561035 C27.02599744 0.22473308 30.01087988 0.78722566 33.59375 3.59375 C34.99832737 6.40290474 34.84270157 8.48185534 34.59375 11.59375 C32.81390595 14.7296657 32.07066793 15.43477736 28.59375 16.59375 C23.34255951 16.87064497 18.09179115 16.90714221 12.83398438 16.94384766 C11.09393955 16.96041642 9.35396305 16.98771889 7.61425781 17.02587891 C5.09925214 17.08071881 2.58583593 17.1025286 0.0703125 17.1171875 C-0.70379974 17.13985687 -1.47791199 17.16252625 -2.27548218 17.18588257 C-6.32165937 17.17010093 -8.17461313 16.77539113 -11.39697266 14.24853516 C-13.40625 11.59375 -13.40625 11.59375 -14.03125 8.59375 C-12.4447375 0.97849 -6.89259428 -0.14717412 0 0 Z " fill="#EDCDB1" transform="translate(69.40625,279.40625)"/>
<path d="M0 0 C14.52 0 29.04 0 44 0 C41.65159577 7.04521269 38.87572193 9.75858483 33 14 C27.07867557 16.58385066 20.0968521 17.16421337 13.828125 15.3828125 C8.34297356 12.98040121 4.32588125 8.93580058 1 4 C0.67 2.68 0.34 1.36 0 0 Z " fill="#FC806C" transform="translate(234,152)"/>
<path d="M0 0 C5.28 0 10.56 0 16 0 C16 10.56 16 21.12 16 32 C10.72 32 5.44 32 0 32 C0 21.44 0 10.88 0 0 Z " fill="#000000" transform="translate(240,280)"/>
<path d="M0 0 C0 10.56 0 21.12 0 32 C-7.91317365 30.86954662 -7.91317365 30.86954662 -10.8125 28.1875 C-11.37582031 27.68605469 -11.93914062 27.18460938 -12.51953125 26.66796875 C-16.17097285 22.55407545 -16.43409959 18.80418144 -16.31640625 13.46875 C-15.6851283 8.54322326 -12.96946378 5.85405143 -9.375 2.6875 C-5.56066756 -0.02268357 -5.12122052 0 0 0 Z " fill="#E9CAAF" transform="translate(184,120)"/>
<path d="M0 0 C7.91317365 1.13045338 7.91317365 1.13045338 10.8125 3.8125 C11.37582031 4.31394531 11.93914062 4.81539063 12.51953125 5.33203125 C16.17097285 9.44592455 16.43409959 13.19581856 16.31640625 18.53125 C15.69970296 23.34305841 12.99340629 26.00659371 9.6875 29.3125 C7 31 7 31 0 32 C0 21.44 0 10.88 0 0 Z " fill="#EACAAF" transform="translate(328,120)"/>
<path d="M0 0 C5.28 0 10.56 0 16 0 C16 5.28 16 10.56 16 16 C10.72 16 5.44 16 0 16 C0 10.72 0 5.44 0 0 Z " fill="#000000" transform="translate(280,104)"/>
<path d="M0 0 C5.28 0 10.56 0 16 0 C16 5.28 16 10.56 16 16 C10.72 16 5.44 16 0 16 C0 10.72 0 5.44 0 0 Z " fill="#000000" transform="translate(216,104)"/>
<path d="M0 0 C1.28846906 9.70953473 2.34057669 19.18003888 2 29 C-3.29299276 27.08402411 -5.56992262 24.64564316 -8.25 19.6875 C-9.75467729 14.2957397 -9.84318544 10.54099407 -7.1875 5.6875 C-2.55813953 0 -2.55813953 0 0 0 Z " fill="#E1C3A9" transform="translate(193,330)"/>
<path d="M0 0 C4.34185387 1.9661225 6.85617758 4.71235515 9 9 C9.54032519 15.26777222 8.75692813 19.83850604 5 25 C0.49438202 29 0.49438202 29 -2 29 C-2.34057669 19.18003888 -1.28846906 9.70953473 0 0 Z " fill="#E2C3A9" transform="translate(319,330)"/>
<path d="M0 0 C4.0743356 0.84881992 5.54405875 2.30225596 8 5.625 C8.625 8.625 8.625 8.625 8 11.625 C5.54405875 14.94774404 4.0743356 16.40118008 0 17.25 C-4.0743356 16.40118008 -5.54405875 14.94774404 -8 11.625 C-8.625 8.625 -8.625 8.625 -8 5.625 C-5.54405875 2.30225596 -4.0743356 0.84881992 0 0 Z " fill="#0B0908" transform="translate(280,327.375)"/>
<path d="M0 0 C4.0743356 0.84881992 5.54405875 2.30225596 8 5.625 C8.625 8.625 8.625 8.625 8 11.625 C5.54405875 14.94774404 4.0743356 16.40118008 0 17.25 C-4.0743356 16.40118008 -5.54405875 14.94774404 -8 11.625 C-8.625 8.625 -8.625 8.625 -8 5.625 C-5.54405875 2.30225596 -4.0743356 0.84881992 0 0 Z " fill="#0B0908" transform="translate(232,327.375)"/>
<path d="M0 0 C5.28 1.32 10.56 2.64 16 4 C16 7.3 16 10.6 16 14 C10.72 12.02 5.44 10.04 0 8 C0 5.36 0 2.72 0 0 Z " fill="#F0694D" transform="translate(296,226)"/>
<path d="M0 0 C0 2.64 0 5.28 0 8 C-5.28 9.98 -10.56 11.96 -16 14 C-16 10.7 -16 7.4 -16 4 C-13.70922959 3.33011414 -11.41748541 2.66396838 -9.125 2 C-8.47402344 1.80921875 -7.82304687 1.6184375 -7.15234375 1.421875 C-2.2265625 0 -2.2265625 0 0 0 Z " fill="#F56B4E" transform="translate(216,226)"/>
</svg>
